<svg data-v-1084b650="" xmlns="http://www.w3.org/2000/svg" viewBox="0 0 300 300"><!----> <!----> <rect data-v-1084b650="" fill="#002C73" x="0" y="0" width="300px" height="300px" class="logo-background-square"></rect> <!----> <!----> <g data-v-1084b650="" id="7f9e0768-c769-786f-2645-5f2eb83aa3c3" fill="#FFD009" stroke="none" transform="matrix(0.95,0,0,0.95,7.170835494995089,7.344666099548306)"><svg xmlns="http://www.w3.org/2000/svg" xmlns:xlink="http://www.w3.org/1999/xlink" version="1.1" x="0px" y="0px" viewBox="0 0 100 100" enable-background="new 0 0 100 100" xml:space="preserve"><path d="M49.02,87.32c0.104,0.065,0.207,0.132,0.311,0.197c0.237,0.117,0.501,0.189,0.785,0.189c0.282,0,0.546-0.072,0.783-0.189  c0.105-0.065,0.208-0.132,0.312-0.197c26.285-16.581,29.834-35.7,29.834-44.043c0-14.282-9.716-26.292-22.908-29.82  c-0.104-0.028-0.206-0.06-0.311-0.087c-2.465-0.631-5.048-0.967-7.71-0.967c-2.663,0-5.246,0.336-7.711,0.967  c-0.104,0.027-0.207,0.06-0.311,0.087c-13.192,3.528-22.908,15.539-22.908,29.82C19.186,51.62,22.734,70.739,49.02,87.32z   M50.115,27.145c8.91,0,16.16,7.237,16.16,16.132c0,8.895-7.25,16.132-16.16,16.132c-8.911,0-16.161-7.237-16.161-16.132  C33.954,34.381,41.204,27.145,50.115,27.145z"></path></svg></g></svg>