<svg data-v-5f19e91b="" xmlns="http://www.w3.org/2000/svg" width="479" height="64" viewBox="0 0 479 64"><!----> <!----> <!----> <g data-v-5f19e91b="" id="2f5064d4-8330-f120-be04-0905981b56b9" fill="black" transform="matrix(4.480956141520432,0,0,4.480956141520432,69.2929015920569,-14.225144548930352)"><path d="M5.49 13.71L5.49 13.71Q4.06 13.71 2.94 13.08L2.94 13.08L2.94 13.08Q1.82 12.45 1.18 11.29L1.18 11.29L1.18 11.29Q0.55 10.14 0.55 8.61L0.55 8.61L0.55 8.61Q0.55 7.08 1.19 5.93L1.19 5.93L1.19 5.93Q1.83 4.77 2.97 4.14L2.97 4.14L2.97 4.14Q4.10 3.51 5.54 3.51L5.54 3.51L5.54 3.51Q6.26 3.51 6.94 3.67L6.94 3.67L6.94 3.67Q7.63 3.82 8.16 4.09L8.16 4.09L8.02 5.32L8.02 5.32Q6.76 4.72 5.53 4.72L5.53 4.72L5.53 4.72Q4.41 4.72 3.61 5.23L3.61 5.23L3.61 5.23Q2.81 5.74 2.41 6.62L2.41 6.62L2.41 6.62Q2.00 7.50 2.00 8.61L2.00 8.61L2.00 8.61Q2.00 9.72 2.41 10.60L2.41 10.60L2.41 10.60Q2.81 11.48 3.60 11.99L3.60 11.99L3.60 11.99Q4.38 12.50 5.50 12.50L5.50 12.50L5.50 12.50Q6.82 12.50 8.02 11.91L8.02 11.91L8.16 13.15L8.16 13.15Q6.94 13.71 5.49 13.71L5.49 13.71ZM9.48 5.11L9.48 3.71L10.74 3.71L10.74 5.11L9.48 5.11ZM9.48 13.51L9.48 6.65L10.74 6.65L10.74 13.51L9.48 13.51ZM14.81 13.65L14.81 13.65Q13.90 13.65 13.46 13.17L13.46 13.17L13.46 13.17Q13.02 12.70 13.02 12.01L13.02 12.01L13.02 7.63L11.84 7.63L11.96 6.65L13.02 6.65L13.02 4.96L14.28 4.83L14.28 6.65L16.09 6.65L16.09 7.63L14.28 7.63L14.28 11.24L14.28 11.24Q14.28 11.96 14.36 12.22L14.36 12.22L14.36 12.22Q14.45 12.49 14.72 12.56L14.72 12.56L14.72 12.56Q14.99 12.64 15.72 12.64L15.72 12.64L16.04 12.64L15.95 13.65L14.81 13.65ZM17.68 16.90L19.26 13.20L16.41 6.65L17.81 6.65L19.95 11.75L21.88 6.65L23.28 6.65L19.08 16.90L17.68 16.90ZM30.45 13.71L30.45 13.71Q29.58 13.71 28.69 13.52L28.69 13.52L28.69 13.52Q27.79 13.33 27.24 13.08L27.24 13.08L27.43 11.66L27.43 11.66Q28.13 12.00 29.01 12.25L29.01 12.25L29.01 12.25Q29.89 12.50 30.76 12.50L30.76 12.50L30.76 12.50Q31.74 12.50 32.28 12.14L32.28 12.14L32.28 12.14Q32.82 11.79 32.82 11.07L32.82 11.07L32.82 11.07Q32.82 10.54 32.54 10.18L32.54 10.18L32.54 10.18Q32.27 9.83 31.75 9.58L31.75 9.58L31.75 9.58Q31.22 9.34 30.28 9.06L30.28 9.06L30.28 9.06Q29.33 8.78 28.70 8.46L28.70 8.46L28.70 8.46Q28.07 8.13 27.69 7.57L27.69 7.57L27.69 7.57Q27.30 7.01 27.30 6.16L27.30 6.16L27.30 6.16Q27.30 4.97 28.22 4.24L28.22 4.24L28.22 4.24Q29.13 3.51 30.80 3.51L30.80 3.51L30.80 3.51Q31.70 3.51 32.50 3.71L32.50 3.71L32.50 3.71Q33.31 3.91 33.91 4.19L33.91 4.19L33.77 5.60L33.77 5.60Q32.98 5.14 32.26 4.93L32.26 4.93L32.26 4.93Q31.53 4.72 30.74 4.72L30.74 4.72L30.74 4.72Q29.83 4.72 29.30 5.05L29.30 5.05L29.30 5.05Q28.76 5.39 28.76 6.09L28.76 6.09L28.76 6.09Q28.76 6.57 29.00 6.87L29.00 6.87L29.00 6.87Q29.25 7.18 29.71 7.40L29.71 7.40L29.71 7.40Q30.17 7.62 31.00 7.87L31.00 7.87L31.00 7.87Q32.65 8.37 33.46 9.06L33.46 9.06L33.46 9.06Q34.27 9.76 34.27 10.98L34.27 10.98L34.27 10.98Q34.27 12.26 33.31 12.98L33.31 12.98L33.31 12.98Q32.34 13.71 30.45 13.71L30.45 13.71ZM43.57 6.51L43.57 6.51Q46.20 6.51 46.20 9.46L46.20 9.46L46.20 13.51L44.94 13.51L44.94 9.48L44.94 9.48Q44.94 8.51 44.56 8.07L44.56 8.07L44.56 8.07Q44.18 7.63 43.33 7.63L43.33 7.63L43.33 7.63Q41.51 7.63 41.51 9.53L41.51 9.53L41.51 13.51L40.25 13.51L40.25 9.73L40.25 9.73Q40.25 8.55 39.84 8.09L39.84 8.09L39.84 8.09Q39.42 7.63 38.64 7.63L38.64 7.63L38.64 7.63Q38.02 7.63 37.55 7.85L37.55 7.85L37.55 7.85Q37.07 8.08 36.82 8.53L36.82 8.53L36.82 13.51L35.56 13.51L35.56 6.65L36.54 6.65L36.68 7.38L36.68 7.38Q37.20 6.92 37.72 6.71L37.72 6.71L37.72 6.71Q38.25 6.51 38.85 6.51L38.85 6.51L38.85 6.51Q40.42 6.51 41.06 7.88L41.06 7.88L41.06 7.88Q41.78 6.51 43.57 6.51L43.57 6.51ZM49.43 13.65L49.43 13.65Q48.48 13.65 47.90 13.09L47.90 13.09L47.90 13.09Q47.32 12.53 47.32 11.66L47.32 11.66L47.32 11.66Q47.32 10.36 48.55 9.80L48.55 9.80L48.55 9.80Q49.78 9.24 51.42 9.21L51.42 9.21L51.42 9.21Q51.42 8.29 51.07 7.96L51.07 7.96L51.07 7.96Q50.71 7.63 49.92 7.63L49.92 7.63L49.92 7.63Q49.49 7.63 49.06 7.76L49.06 7.76L49.06 7.76Q48.62 7.90 48.12 8.25L48.12 8.25L47.94 7.22L47.94 7.22Q48.36 6.90 48.97 6.71L48.97 6.71L48.97 6.71Q49.59 6.51 50.26 6.51L50.26 6.51L50.26 6.51Q51.14 6.51 51.67 6.82L51.67 6.82L51.67 6.82Q52.19 7.13 52.44 7.84L52.44 7.84L52.44 7.84Q52.68 8.55 52.68 9.80L52.68 9.80L52.68 11.20L52.68 11.20Q52.68 11.76 52.73 12.05L52.73 12.05L52.73 12.05Q52.78 12.33 52.95 12.49L52.95 12.49L52.95 12.49Q53.12 12.64 53.47 12.64L53.47 12.64L53.59 12.64L53.40 13.65L53.30 13.65L53.30 13.65Q52.71 13.65 52.37 13.54L52.37 13.54L52.37 13.54Q52.04 13.43 51.86 13.22L51.86 13.22L51.86 13.22Q51.69 13.01 51.53 12.64L51.53 12.64L51.53 12.64Q50.67 13.65 49.43 13.65L49.43 13.65ZM49.67 12.64L49.67 12.64Q50.18 12.64 50.65 12.39L50.65 12.39L50.65 12.39Q51.11 12.14 51.42 11.72L51.42 11.72L51.42 10.08L51.42 10.08Q49.91 10.14 49.26 10.48L49.26 10.48L49.26 10.48Q48.61 10.82 48.61 11.59L48.61 11.59L48.61 11.59Q48.61 12.12 48.90 12.38L48.90 12.38L48.90 12.38Q49.18 12.64 49.67 12.64L49.67 12.64ZM54.56 13.51L54.56 6.65L55.59 6.65L55.75 7.78L55.75 7.78Q56.28 7.13 56.76 6.82L56.76 6.82L56.76 6.82Q57.25 6.51 57.78 6.51L57.78 6.51L57.78 6.51Q57.95 6.51 58.10 6.55L58.10 6.55L57.97 7.94L57.97 7.94Q57.79 7.90 57.55 7.90L57.55 7.90L57.55 7.90Q57.04 7.90 56.57 8.13L56.57 8.13L56.57 8.13Q56.11 8.36 55.90 8.67L55.90 8.67L55.90 13.51L54.56 13.51ZM61.35 13.65L61.35 13.65Q60.44 13.65 60.00 13.17L60.00 13.17L60.00 13.17Q59.56 12.70 59.56 12.01L59.56 12.01L59.56 7.63L58.38 7.63L58.49 6.65L59.56 6.65L59.56 4.96L60.82 4.83L60.82 6.65L62.62 6.65L62.62 7.63L60.82 7.63L60.82 11.24L60.82 11.24Q60.82 11.96 60.90 12.22L60.90 12.22L60.90 12.22Q60.98 12.49 61.26 12.56L61.26 12.56L61.26 12.56Q61.53 12.64 62.26 12.64L62.26 12.64L62.58 12.64L62.48 13.65L61.35 13.65ZM71.39 13.71L71.39 13.71Q69.99 13.71 68.89 13.08L68.89 13.08L68.89 13.08Q67.79 12.45 67.17 11.29L67.17 11.29L67.17 11.29Q66.56 10.14 66.56 8.61L66.56 8.61L66.56 8.61Q66.56 7.08 67.17 5.93L67.17 5.93L67.17 5.93Q67.79 4.77 68.89 4.14L68.89 4.14L68.89 4.14Q69.99 3.51 71.39 3.51L71.39 3.51L71.39 3.51Q72.79 3.51 73.89 4.14L73.89 4.14L73.89 4.14Q74.98 4.77 75.60 5.93L75.60 5.93L75.60 5.93Q76.22 7.08 76.22 8.61L76.22 8.61L76.22 8.61Q76.22 10.14 75.60 11.29L75.60 11.29L75.60 11.29Q74.98 12.45 73.89 13.08L73.89 13.08L73.89 13.08Q72.79 13.71 71.39 13.71L71.39 13.71ZM71.39 12.42L71.39 12.42Q72.48 12.42 73.25 11.92L73.25 11.92L73.25 11.92Q74.02 11.42 74.40 10.56L74.40 10.56L74.40 10.56Q74.79 9.70 74.79 8.61L74.79 8.61L74.79 8.61Q74.79 7.52 74.40 6.66L74.40 6.66L74.40 6.66Q74.02 5.80 73.25 5.30L73.25 5.30L73.25 5.30Q72.48 4.80 71.39 4.80L71.39 4.80L71.39 4.80Q70.29 4.80 69.52 5.30L69.52 5.30L69.52 5.30Q68.75 5.80 68.37 6.66L68.37 6.66L68.37 6.66Q67.98 7.52 67.98 8.61L67.98 8.61L67.98 8.61Q67.98 9.70 68.37 10.56L68.37 10.56L68.37 10.56Q68.75 11.42 69.52 11.92L69.52 11.92L69.52 11.92Q70.29 12.42 71.39 12.42L71.39 12.42ZM81.02 6.51L81.02 6.51Q83.82 6.51 83.82 9.73L83.82 9.73L83.82 13.51L82.56 13.51L82.56 9.73L82.56 9.73Q82.56 8.62 82.15 8.13L82.15 8.13L82.15 8.13Q81.73 7.63 80.77 7.63L80.77 7.63L80.77 7.63Q80.15 7.63 79.65 7.85L79.65 7.85L79.65 7.85Q79.14 8.08 78.89 8.53L78.89 8.53L78.89 13.51L77.63 13.51L77.63 6.65L78.61 6.65L78.75 7.38L78.75 7.38Q79.30 6.89 79.85 6.70L79.85 6.70L79.85 6.70Q80.40 6.51 81.02 6.51L81.02 6.51ZM88.75 13.65L88.75 13.65Q87.57 13.65 86.74 13.17L86.74 13.17L86.74 13.17Q85.90 12.68 85.47 11.86L85.47 11.86L85.47 11.86Q85.04 11.03 85.04 10.02L85.04 10.02L85.04 10.02Q85.04 9.06 85.44 8.25L85.44 8.25L85.44 8.25Q85.83 7.45 86.60 6.98L86.60 6.98L86.60 6.98Q87.36 6.51 88.40 6.51L88.40 6.51L88.40 6.51Q89.71 6.51 90.53 7.28L90.53 7.28L90.53 7.28Q91.35 8.05 91.35 9.41L91.35 9.41L91.35 9.41Q91.35 9.76 91.29 10.08L91.29 10.08L86.32 10.08L86.32 10.08Q86.45 11.41 87.14 11.97L87.14 11.97L87.14 11.97Q87.82 12.53 88.90 12.53L88.90 12.53L88.90 12.53Q89.98 12.53 90.87 12.12L90.87 12.12L91.04 13.12L91.04 13.12Q89.85 13.65 88.75 13.65L88.75 13.65ZM86.44 9.21L90.05 9.21L90.05 9.21Q90.05 8.47 89.63 8.05L89.63 8.05L89.63 8.05Q89.21 7.63 88.37 7.63L88.37 7.63L88.37 7.63Q87.56 7.63 87.09 8.03L87.09 8.03L87.09 8.03Q86.63 8.43 86.44 9.21L86.44 9.21Z"></path></g> <!----> <g data-v-5f19e91b="" id="1cf1f52a-c216-4d1a-6a51-f51cf8340b0b" transform="matrix(0.8367000155978732,0,0,0.8367000155978732,-15.74564060522728,-9.477601382226162)" stroke="none" fill="black"><path d="M49.02,87.32c0.104,0.065,0.207,0.132,0.311,0.197c0.237,0.117,0.501,0.189,0.785,0.189c0.282,0,0.546-0.072,0.783-0.189  c0.105-0.065,0.208-0.132,0.312-0.197c26.285-16.581,29.834-35.7,29.834-44.043c0-14.282-9.716-26.292-22.908-29.82  c-0.104-0.028-0.206-0.06-0.311-0.087c-2.465-0.631-5.048-0.967-7.71-0.967c-2.663,0-5.246,0.336-7.711,0.967  c-0.104,0.027-0.207,0.06-0.311,0.087c-13.192,3.528-22.908,15.539-22.908,29.82C19.186,51.62,22.734,70.739,49.02,87.32z   M50.115,27.145c8.91,0,16.16,7.237,16.16,16.132c0,8.895-7.25,16.132-16.16,16.132c-8.911,0-16.161-7.237-16.161-16.132  C33.954,34.381,41.204,27.145,50.115,27.145z"></path></g></svg>